<?xml version="1.0" encoding="UTF-8"?>
<svg width="16px" height="16px" viewBox="0 0 16 16" version="1.1" xmlns="http://www.w3.org/2000/svg" xmlns:xlink="http://www.w3.org/1999/xlink">
    <!-- Generator: Sketch 62 (91390) - https://sketch.com -->
    <title>18_indicator-echo/icon_health</title>
    <desc>Created with Sketch.</desc>
    <g id="crosshairs" stroke="none" stroke-width="1" fill="none" fill-rule="evenodd">
        <g id="18_indicator-echo" transform="translate(-184.000000, -340.000000)" fill="#FFFFFF">
            <g id="18_indicator-echo/icon_health" transform="translate(184.000000, 340.000000)">
                <path d="M9,0 C9.55228475,-1.01453063e-16 10,0.44771525 10,1 L10,6 L15,6 C15.5522847,6 16,6.44771525 16,7 L16,9 C16,9.55228475 15.5522847,10 15,10 L10,10 L10,15 C10,15.5522847 9.55228475,16 9,16 L7,16 C6.44771525,16 6,15.5522847 6,15 L6,10 L1,10 C0.44771525,10 0,9.55228475 0,9 L0,7 C0,6.44771525 0.44771525,6 1,6 L6,6 L6,1 C6,0.44771525 6.44771525,1.01453063e-16 7,0 L9,0 Z" id="Combined-Shape"></path>
            </g>
        </g>
    </g>
</svg>