<?xml version="1.0" encoding="UTF-8"?>
<svg width="19px" height="15px" viewBox="0 0 19 15" version="1.1" xmlns="http://www.w3.org/2000/svg" xmlns:xlink="http://www.w3.org/1999/xlink">
    <!-- Generator: Sketch 62 (91390) - https://sketch.com -->
    <title>18_indicator-echo/icon_ammo</title>
    <desc>Created with Sketch.</desc>
    <g id="crosshairs" stroke="none" stroke-width="1" fill="none" fill-rule="evenodd">
        <g id="18_indicator-echo" transform="translate(-315.000000, -341.000000)" fill="#FFFFFF">
            <g id="18_indicator-echo/icon_ammo" transform="translate(315.000000, 341.000000)">
                <path d="M0.07231,4.4303 C0.03101,4.6725 0.00616,5.4796 -0.00014,5.76975 L-0.00014,13.14915 C-0.00014,13.63285 0.39221,14.0252 0.87626,14.0252 L4.08051,14.0255502 C4.56421,14.0259 4.95656,13.63355 4.95691,13.1502 L4.96111,5.7855 C4.95411,5.4894 4.92891,4.67705 4.88691,4.4212 C4.53376,2.28445 3.71231,0 2.46876,0 C1.46706,0.00105 0.52591,1.73985 0.07231,4.4303" id="Fill-1"></path>
                <path d="M7.07231,4.4303 C7.03101,4.6725 7.00616,5.4796 6.99986,5.76975 L6.99986,13.14915 C6.99986,13.63285 7.39221,14.0252 7.87626,14.0252 L11.08051,14.0255502 C11.56421,14.0259 11.95656,13.63355 11.95691,13.1502 L11.96111,5.7855 C11.95411,5.4894 11.92891,4.67705 11.88691,4.4212 C11.53376,2.28445 10.71231,0 9.46876,0 C8.46706,0.00105 7.52591,1.73985 7.07231,4.4303" id="Fill-1"></path>
                <path d="M14.07231,4.4303 C14.03101,4.6725 14.00616,5.4796 13.99986,5.76975 L13.99986,13.14915 C13.99986,13.63285 14.39221,14.0252 14.87626,14.0252 L18.08051,14.0255502 C18.56421,14.0259 18.95656,13.63355 18.95691,13.1502 L18.96111,5.7855 C18.95411,5.4894 18.92891,4.67705 18.88691,4.4212 C18.53376,2.28445 17.71231,0 16.46876,0 C15.46706,0.00105 14.52591,1.73985 14.07231,4.4303" id="Fill-1"></path>
            </g>
        </g>
    </g>
</svg>