<?xml version="1.0" encoding="UTF-8"?>
<svg width="209px" height="209px" viewBox="0 0 209 209" version="1.1" xmlns="http://www.w3.org/2000/svg" xmlns:xlink="http://www.w3.org/1999/xlink">
    <!-- Generator: Sketch 62 (91390) - https://sketch.com -->
    <title>14_holo_1</title>
    <desc>Created with Sketch.</desc>
    <g id="crosshairs" stroke="none" stroke-width="1" fill="none" fill-rule="evenodd">
        <g id="14_holo_1" transform="translate(-151.000000, -152.000000)">
            <g transform="translate(152.000000, 152.000000)">
                <path d="M186.2128,104.454 C186.2128,58.746 149.1608,21.692 103.4508,21.692 C57.7448,21.692 20.6908,58.746 20.6908,104.454 C20.6908,150.162 57.7448,187.214 103.4508,187.214 C149.1608,187.214 186.2128,150.162 186.2128,104.454 Z" id="Stroke-1" stroke="#FFFFFF" stroke-width="1.5" stroke-linecap="round" stroke-linejoin="round"></path>
                <path d="M108.6602,104.454 C108.6602,101.578 106.3282,99.246 103.4522,99.246 C100.5762,99.246 98.2442,101.578 98.2442,104.454 C98.2442,107.33 100.5762,109.662 103.4522,109.662 C106.3282,109.662 108.6602,107.33 108.6602,104.454" id="Fill-3" fill="#FFFFFF"></path>
                <g id="Group-7" transform="translate(186.000000, 102.904000)" stroke="#FFFFFF" stroke-linecap="round" stroke-linejoin="round" stroke-width="1.5">
                    <line x1="20.9042" y1="1.548" x2="0.2142" y2="1.548" id="Stroke-5"></line>
                </g>
                <line x1="20.6904" y1="104.452" x2="0.000400000001" y2="104.452" id="Stroke-8" stroke="#FFFFFF" stroke-width="1.5" stroke-linecap="round" stroke-linejoin="round"></line>
                <g id="Group-12" transform="translate(102.000000, 186.904000)" stroke="#FFFFFF" stroke-linecap="round" stroke-linejoin="round" stroke-width="1.5">
                    <line x1="1.453" y1="21.0002" x2="1.453" y2="0.3082" id="Stroke-10"></line>
                </g>
                <g id="Group-15" transform="translate(102.000000, 0.904000)" stroke="#FFFFFF" stroke-linecap="round" stroke-linejoin="round" stroke-width="1.5">
                    <line x1="1.453" y1="20.7854" x2="1.453" y2="0.0954" id="Stroke-13"></line>
                </g>
            </g>
        </g>
    </g>
</svg>