<?xml version="1.0" encoding="UTF-8"?>
<svg width="40px" height="154px" viewBox="0 0 40 154" version="1.1" xmlns="http://www.w3.org/2000/svg" xmlns:xlink="http://www.w3.org/1999/xlink">
    <!-- Generator: Sketch 62 (91390) - https://sketch.com -->
    <title>20_indicator-flower/indicator_right</title>
    <desc>Created with Sketch.</desc>
    <g id="crosshairs" stroke="none" stroke-width="1" fill="none" fill-rule="evenodd">
        <g id="20_indicator-flower" transform="translate(-323.000000, -179.000000)" stroke="#FFFFFF" stroke-width="1.72">
            <g id="20_indicator-flower/indicator_right" transform="translate(324.282964, 179.606816)">
                <line x1="29.070408" y1="72.682556" x2="38.107288" y2="72.378116" id="Stroke-38"></line>
                <line x1="38.209628" y1="79.578552" x2="29.019668" y2="79.268952" id="Stroke-40"></line>
                <line x1="28.608416" y1="66.533212" x2="37.669376" y2="65.657732" id="Stroke-42"></line>
                <line x1="37.77292" y1="86.299796" x2="28.63284" y2="85.415716" id="Stroke-44"></line>
                <line x1="27.817388" y1="60.420848" x2="36.811268" y2="58.976048" id="Stroke-46"></line>
                <line x1="36.91292" y1="92.980792" x2="27.85884" y2="91.525672" id="Stroke-48"></line>
                <line x1="26.641596" y1="54.370576" x2="35.533996" y2="52.363336" id="Stroke-51"></line>
                <line x1="35.636336" y1="99.593676" x2="26.700936" y2="97.576116" id="Stroke-52"></line>
                <line x1="25.05266" y1="48.417828" x2="33.84358" y2="45.842988" id="Stroke-53"></line>
                <line x1="33.948156" y1="106.114196" x2="25.160676" y2="103.541076" id="Stroke-54"></line>
                <line x1="23.1512" y1="42.558132" x2="31.74948" y2="39.441492" id="Stroke-55"></line>
                <line x1="31.851992" y1="112.51552" x2="23.243392" y2="109.39544" id="Stroke-56"></line>
                <line x1="20.850012" y1="36.843088" x2="29.257372" y2="33.184648" id="Stroke-57"></line>
                <line x1="29.359368" y1="118.773224" x2="20.957168" y2="115.116504" id="Stroke-58"></line>
                <line x1="18.192784" y1="31.287488" x2="26.374824" y2="27.095848" id="Stroke-59"></line>
                <line x1="26.478712" y1="124.861164" x2="18.315592" y2="120.679844" id="Stroke-60"></line>
                <line x1="15.189492" y1="25.912488" x2="23.116972" y2="21.199688" id="Stroke-61"></line>
                <line x1="23.22" y1="130.756808" x2="15.3252" y2="126.062928" id="Stroke-62"></line>
                <line x1="11.853552" y1="20.739932" x2="19.495512" y2="15.521452" id="Stroke-63"></line>
                <line x1="19.598712" y1="136.435904" x2="12.001472" y2="131.248384" id="Stroke-64"></line>
                <line x1="8.148156" y1="15.828472" x2="15.525236" y2="10.080232" id="Stroke-65"></line>
                <line x1="15.62792" y1="141.876436" x2="8.3592" y2="136.212476" id="Stroke-66"></line>
                <line x1="4.219332" y1="11.100192" x2="11.219732" y2="4.901312" id="Stroke-67"></line>
                <line x1="11.32448" y1="147.05656" x2="4.4118" y2="140.9368" id="Stroke-68"></line>
                <line x1="1.78967952e-13" y1="6.62716" x2="6.59964" y2="6.66133815e-15" id="Stroke-69"></line>
                <line x1="6.70198" y1="151.956152" x2="0.17802" y2="145.404672" id="Stroke-71"></line>
            </g>
        </g>
    </g>
</svg>