<?xml version="1.0" encoding="UTF-8"?>
<svg width="39px" height="154px" viewBox="0 0 39 154" version="1.1" xmlns="http://www.w3.org/2000/svg" xmlns:xlink="http://www.w3.org/1999/xlink">
    <!-- Generator: Sketch 62 (91390) - https://sketch.com -->
    <title>20_indicator-flower/indicator_left</title>
    <desc>Created with Sketch.</desc>
    <g id="crosshairs" stroke="none" stroke-width="1" fill="none" fill-rule="evenodd">
        <g id="20_indicator-flower" transform="translate(-149.000000, -179.000000)" stroke="#FFFFFF" stroke-width="1.72">
            <g id="20_indicator-flower/indicator_left" transform="translate(149.028552, 178.970152)">
                <line x1="9.13836" y1="73.31922" x2="0.1032" y2="73.01478" id="Stroke-1"></line>
                <line x1="0" y1="80.215216" x2="9.18996" y2="79.905616" id="Stroke-3"></line>
                <line x1="9.6019" y1="67.169876" x2="0.54094" y2="66.294396" id="Stroke-5"></line>
                <line x1="0.437568" y1="86.93646" x2="9.577648" y2="86.05238" id="Stroke-7"></line>
                <line x1="10.39224" y1="61.057512" x2="1.39836" y2="59.612712" id="Stroke-9"></line>
                <line x1="1.296708" y1="93.617456" x2="10.350788" y2="92.162336" id="Stroke-11"></line>
                <line x1="11.568032" y1="55.00724" x2="2.675632" y2="53" id="Stroke-13"></line>
                <line x1="2.573292" y1="100.23034" x2="11.510412" y2="98.21278" id="Stroke-15"></line>
                <line x1="13.156108" y1="49.054492" x2="4.365188" y2="46.479652" id="Stroke-18"></line>
                <line x1="4.26216" y1="106.75086" x2="13.04964" y2="104.17774" id="Stroke-19"></line>
                <line x1="15.058428" y1="43.194796" x2="6.460148" y2="40.078156" id="Stroke-20"></line>
                <line x1="6.357636" y1="113.152184" x2="14.966236" y2="110.032104" id="Stroke-21"></line>
                <line x1="17.359616" y1="37.479752" x2="8.953976" y2="33.821312" id="Stroke-22"></line>
                <line x1="8.85026" y1="119.409888" x2="17.25246" y2="115.753168" id="Stroke-23"></line>
                <line x1="20.017704" y1="31.924152" x2="11.833944" y2="27.732512" id="Stroke-24"></line>
                <line x1="11.731776" y1="125.497828" x2="19.894896" y2="121.316508" id="Stroke-25"></line>
                <line x1="23.020996" y1="26.549152" x2="15.091796" y2="21.836352" id="Stroke-26"></line>
                <line x1="14.989628" y1="131.393472" x2="22.884428" y2="126.699592" id="Stroke-27"></line>
                <line x1="26.356764" y1="21.376596" x2="18.713084" y2="16.158116" id="Stroke-28"></line>
                <line x1="18.610916" y1="137.072568" x2="26.208156" y2="131.885048" id="Stroke-29"></line>
                <line x1="30.062332" y1="16.465136" x2="22.683532" y2="10.716896" id="Stroke-30"></line>
                <line x1="22.581708" y1="142.5131" x2="29.850428" y2="136.84914" id="Stroke-31"></line>
                <line x1="33.990984" y1="11.736856" x2="26.988864" y2="5.537976" id="Stroke-32"></line>
                <line x1="26.886008" y1="147.693224" x2="33.796968" y2="141.573464" id="Stroke-33"></line>
                <line x1="38.209628" y1="7.263824" x2="31.611708" y2="0.636664" id="Stroke-34"></line>
                <line x1="31.507648" y1="152.592816" x2="38.031608" y2="146.041336" id="Stroke-36"></line>
            </g>
        </g>
    </g>
</svg>